# xmcd
#
# Track frame offsets: 
#        150
#        3830
#        29138
#        40261
#        65238
#        86366
#        97862
#        118524
#        140131
#        161954
#        184797
#        197492
#        212959
#        241760
#        255104
#        274453
#        302623
#        314340
#        334307
#
# Disc length: 4652 seconds
#
# Revision: 3
# Processed by: cddbd v1.5.2PL0 Copyright (c) Steve Scherf et al.
# Submitted via: ExactAudioCopyFreeDBPlugin 1.0
#
DISCID=11122a13
DTITLE=Various Artist - Don't Fight The Feeling:  Aretha Franklin and K
DTITLE=ing Curtis Live at Fillmore West
DYEAR=2005
DGENRE=Soul
TTITLE0=Emcee - Intro
TTITLE1=The Memphis Horns - Knock on Wood
TTITLE2=King Curtis - Whole Lotta Love
TTITLE3=King Curtis - Them Changes
TTITLE4=King Curtis - A Whiter Shade of Pale
TTITLE5=Billy Preston - My Sweet Lord
TTITLE6=King Curtis - Ode to Billie Joe
TTITLE7=King Curtis - Mr. Bojangles
TTITLE8=King Curtis - Soul Serenade
TTITLE9=King Curtis - Memphis Soul Stew
TTITLE10=King Curtis - Signed, Sealed, Delivered (I'm Yours)
TTITLE11=Aretha Franklin - Respect
TTITLE12=Aretha Franklin - Call Me
TTITLE13=Aretha Franklin - Mixed-Up Girl
TTITLE14=Aretha Franklin - Love the One You're With
TTITLE15=Aretha Franklin - Bridge Over Troubled Water
TTITLE16=Aretha Franklin - Eleanor Rigby
TTITLE17=Aretha Franklin - Make It with You
TTITLE18=Aretha Franklin - Don't Play That Song
EXTD=YEAR: 2005
EXTT0=
EXTT1=
EXTT2=
EXTT3=
EXTT4=
EXTT5=
EXTT6=
EXTT7=
EXTT8=
EXTT9=
EXTT10=
EXTT11=
EXTT12=
EXTT13=
EXTT14=
EXTT15=
EXTT16=
EXTT17=
EXTT18=
PLAYORDER=
